<svg width="48" height="48" viewBox="0 0 48 48" fill="none" xmlns="http://www.w3.org/2000/svg">
<path d="M33.7601 15.3132C31.951 14.485 30.0411 13.8974 28.0793 13.5654C27.8108 14.0453 27.5679 14.5391 27.3515 15.0447C25.2618 14.7298 23.1367 14.7298 21.0469 15.0447C20.8305 14.5392 20.5876 14.0454 20.3192 13.5654C18.3561 13.9002 16.445 14.4892 14.634 15.3176C11.0388 20.6367 10.0642 25.8238 10.5515 30.9372C12.6569 32.4928 15.0135 33.6759 17.5189 34.435C18.083 33.6763 18.5821 32.8714 19.0111 32.0288C18.1964 31.7245 17.4101 31.3491 16.6612 30.9069C16.8583 30.764 17.051 30.6167 17.2373 30.4738C19.4163 31.4985 21.7946 32.0298 24.2025 32.0298C26.6104 32.0298 28.9887 31.4985 31.1677 30.4738C31.3561 30.6275 31.5488 30.7748 31.7438 30.9069C30.9935 31.3498 30.2057 31.726 29.3896 32.031C29.818 32.8731 30.3172 33.6774 30.8818 34.435C33.3892 33.6789 35.7476 32.4964 37.8535 30.9394C38.4252 25.0095 36.8767 19.87 33.7601 15.3132ZM19.6283 27.7925C18.2704 27.7925 17.1485 26.5602 17.1485 25.0441C17.1485 23.5281 18.2314 22.2849 19.624 22.2849C21.0166 22.2849 22.1298 23.5281 22.106 25.0441C22.0822 26.5602 21.0123 27.7925 19.6283 27.7925ZM28.7766 27.7925C27.4165 27.7925 26.299 26.5602 26.299 25.0441C26.299 23.5281 27.3819 22.2849 28.7766 22.2849C30.1714 22.2849 31.276 23.5281 31.2521 25.0441C31.2283 26.5602 30.1606 27.7925 28.7766 27.7925Z" fill="#3D3D3D"/>
</svg>
