<svg width="80" height="80" viewBox="0 0 80 80" fill="none" xmlns="http://www.w3.org/2000/svg">
<circle cx="40" cy="40" r="40" fill="white"/>
<path d="M36.3137 43.6856C37.174 44.504 37.174 45.8469 36.3137 46.6653C35.4953 47.4836 34.1524 47.4836 33.334 46.6653C29.2423 42.5735 29.2423 35.9217 33.334 31.83L40.7622 24.4018C44.854 20.3101 51.5057 20.3101 55.5975 24.4018C59.6892 28.4936 59.6892 35.1454 55.5975 39.2371L52.4709 42.3637C52.4919 40.643 52.2191 38.9224 51.6316 37.2857L52.6178 36.2785C55.0939 33.8234 55.0939 29.8365 52.6178 27.3815C50.1628 24.9054 46.1759 24.9054 43.7208 27.3815L36.3137 34.7886C33.8376 37.2437 33.8376 41.2305 36.3137 43.6856ZM42.231 34.7886C43.0494 33.9703 44.3923 33.9703 45.2107 34.7886C49.3024 38.8804 49.3024 45.5322 45.2107 49.6239L37.7825 57.0521C33.6908 61.1438 27.039 61.1438 22.9472 57.0521C18.8555 52.9603 18.8555 46.3085 22.9472 42.2168L26.0738 39.0902C26.0528 40.8109 26.3256 42.5315 26.9131 44.1892L25.9269 45.1754C23.4508 47.6305 23.4508 51.6174 25.9269 54.0724C28.382 56.5485 32.3688 56.5485 34.8239 54.0724L42.231 46.6653C44.7071 44.2102 44.7071 40.2233 42.231 37.7683C41.3707 36.9499 41.3707 35.607 42.231 34.7886Z" fill="#FBB30F"/>
</svg>
