<svg width="48" height="48" viewBox="0 0 48 48" fill="none" xmlns="http://www.w3.org/2000/svg">
<path d="M14.0861 18.1045C14.0861 17.806 13.9318 17.4328 13.7003 17.2836L11.3086 14.4478V14H18.8694L24.6558 26.3881L29.8249 14H37V14.4478L34.9169 16.3881C34.7626 16.4627 34.6855 16.6866 34.6855 16.9104V31.0896C34.6855 31.3134 34.7626 31.5373 34.9169 31.6866L37 33.5522V34H26.7389V33.5522L28.822 31.6119C29.0534 31.3881 29.0534 31.3134 29.0534 31.0149V19.597L23.1899 33.9254H22.4184L15.6291 19.597V29.2239C15.5519 29.597 15.7062 30.0448 16.0148 30.3433L18.7151 33.5522V33.9254H11V33.5522L13.7003 30.3433C14.0089 30.0448 14.1632 29.597 14.0861 29.2239V18.1045Z" fill="#3D3D3D"/>
</svg>
