<svg width="48" height="48" viewBox="0 0 48 48" fill="none" xmlns="http://www.w3.org/2000/svg">
<path d="M12.0899 25.7776L12.1872 25.6246L18.0585 16.4397C18.1444 16.3052 18.3461 16.3191 18.411 16.4652C19.3919 18.6635 20.2383 21.3974 19.8418 23.0994C19.6725 23.7996 19.2087 24.7481 18.6869 25.6246C18.6197 25.7521 18.5455 25.8774 18.4667 25.9979C18.4296 26.0536 18.3669 26.0861 18.2997 26.0861H12.2615C12.0991 26.0861 12.0041 25.9098 12.0899 25.7776Z" fill="#3D3D3D"/>
<path d="M38.2607 27.4855V28.9394C38.2607 29.0228 38.2096 29.0971 38.1354 29.1295C37.681 29.3243 36.125 30.0385 35.478 30.9382C33.827 33.2362 32.5656 36.522 29.7459 36.522H17.9824C13.8131 36.522 10.4346 33.1319 10.4346 28.9487V28.8141C10.4346 28.7029 10.525 28.6124 10.6363 28.6124H17.194C17.3238 28.6124 17.4189 28.733 17.4073 28.8605C17.3609 29.2872 17.4398 29.7232 17.6415 30.1197C18.0311 30.9104 18.8381 31.4043 19.7099 31.4043H22.9563V28.8698H19.747C19.5824 28.8698 19.485 28.6797 19.5801 28.5452C19.6149 28.4918 19.6543 28.4362 19.696 28.3736C19.9998 27.9423 20.4334 27.2721 20.8647 26.5092C21.1592 25.9945 21.4444 25.4449 21.674 24.893C21.7204 24.7933 21.7575 24.6913 21.7946 24.5915C21.8572 24.4153 21.9221 24.2507 21.9685 24.0861C22.0148 23.9469 22.052 23.8008 22.0891 23.664C22.1981 23.1956 22.2444 22.6994 22.2444 22.1846C22.2444 21.9829 22.2351 21.7719 22.2166 21.5701C22.2073 21.3498 22.1795 21.1295 22.1517 20.9092C22.1331 20.7144 22.0984 20.522 22.0612 20.3203C22.0148 20.0258 21.9499 19.7336 21.8757 19.4391L21.8502 19.3278C21.7946 19.1261 21.7482 18.9336 21.6833 18.7319C21.5001 18.0988 21.2891 17.482 21.0665 16.9046C20.9853 16.675 20.8925 16.4548 20.7998 16.2345C20.663 15.9029 20.5238 15.6014 20.3963 15.3162C20.3314 15.1863 20.2757 15.0681 20.2201 14.9475C20.1574 14.8107 20.0925 14.6739 20.0276 14.544C19.9813 14.4443 19.9279 14.3516 19.8908 14.2588L19.4943 13.526C19.4386 13.4263 19.5314 13.3081 19.6404 13.3382L22.1215 14.0107H22.1285C22.1331 14.0107 22.1354 14.013 22.1378 14.013L22.4647 14.1034L22.8242 14.2055L22.9563 14.2426V12.7678C22.9563 12.0559 23.5267 11.4785 24.2317 11.4785C24.5841 11.4785 24.9041 11.6223 25.1337 11.8565C25.3633 12.0907 25.507 12.4107 25.507 12.7678V14.9568L25.7714 15.031C25.7922 15.0379 25.8131 15.0472 25.8317 15.0611C25.8966 15.1098 25.9893 15.1817 26.1076 15.2698C26.2003 15.344 26.3001 15.4345 26.4207 15.5272C26.6595 15.7197 26.9447 15.9678 27.2578 16.253C27.3412 16.3249 27.4224 16.3991 27.4966 16.4733C27.9001 16.8489 28.3523 17.2895 28.7835 17.7765C28.9041 17.9133 29.0224 18.0524 29.1429 18.1985C29.2636 18.3469 29.3911 18.493 29.5024 18.6391C29.6485 18.8339 29.8062 19.0356 29.943 19.2466C30.0079 19.3464 30.0821 19.4484 30.1447 19.5481C30.3209 19.8148 30.4763 20.0907 30.6247 20.3666C30.6873 20.4942 30.7522 20.6333 30.8079 20.7701C30.9725 21.1388 31.1024 21.5145 31.1859 21.8901C31.2114 21.9713 31.2299 22.0594 31.2392 22.1382V22.1568C31.267 22.2681 31.2763 22.3864 31.2856 22.5069C31.3227 22.8918 31.3041 23.2768 31.2206 23.664C31.1859 23.8287 31.1395 23.984 31.0839 24.1487C31.0282 24.3064 30.9725 24.471 30.9006 24.6263C30.7615 24.9486 30.5969 25.271 30.4021 25.5724C30.3395 25.6837 30.2653 25.802 30.1911 25.9133C30.1099 26.0315 30.0264 26.1429 29.9523 26.2519C29.8502 26.391 29.7413 26.5371 29.6299 26.6669C29.5302 26.8037 29.4282 26.9406 29.3169 27.0611C29.1615 27.2443 29.0131 27.4182 28.8578 27.5852C28.765 27.6942 28.6653 27.8055 28.5633 27.9052C28.4635 28.0165 28.3615 28.1162 28.2687 28.2089C28.1134 28.3643 27.9836 28.4849 27.8746 28.5846L27.6195 28.8188C27.5824 28.8513 27.5337 28.8698 27.4827 28.8698H25.507V31.4043H27.9928C28.5494 31.4043 29.078 31.2072 29.5047 30.8455C29.6508 30.7179 30.2885 30.166 31.0421 29.3336C31.0676 29.3058 31.1001 29.2849 31.1372 29.2756L38.0033 27.2907C38.1308 27.2536 38.2607 27.351 38.2607 27.4855Z" fill="#3D3D3D"/>
</svg>
