<svg width="73" height="44" viewBox="0 0 73 44" fill="none" xmlns="http://www.w3.org/2000/svg">
<path d="M34.7471 3.19316C34.6384 1.45672 33.1991 0.0979063 31.4534 0.0819586L22.1928 0.000876472C10.0823 -0.106068 0.146999 9.58722 0.00161343 21.6515C-0.143772 33.7157 9.55465 43.5812 21.6651 43.6881L57.0596 43.9994C65.7351 44.0759 72.8626 37.1488 72.998 28.5059C73.1349 19.8916 66.2349 12.8202 57.5875 12.7129C57.5689 12.7126 45.7201 12.6088 22.0436 12.4007C16.8081 12.3545 12.5127 16.5452 12.4498 21.7608C12.3868 26.9763 16.5796 31.2414 21.8152 31.2875L45.5499 31.4955C47.3742 31.5116 48.8644 30.0576 48.8872 28.2395L48.8873 28.2378C48.9094 26.4037 47.4284 24.8972 45.5872 24.881L21.8955 24.6743C20.3262 24.6596 19.0695 23.3812 19.0883 21.8188C19.1064 20.2554 20.394 18.9992 21.9641 19.013L57.4497 19.3254C62.4639 19.3874 66.4381 23.4605 66.3597 28.4227C66.2809 33.4219 62.1585 37.4289 57.1391 37.3853L21.7447 37.0741C13.3013 36.9994 6.53888 30.1206 6.64018 21.7094C6.74234 13.2974 13.6691 6.53946 22.1133 6.61325L31.4161 6.69485C33.3383 6.71207 34.867 5.10383 34.7471 3.19316Z" fill="#FBB30F"/>
</svg>
