<svg width="48" height="48" viewBox="0 0 48 48" fill="none" xmlns="http://www.w3.org/2000/svg">
<path d="M34.5327 18.7609C34.5484 18.9873 34.5484 19.2137 34.5484 19.4422C34.5484 26.4049 29.2478 34.435 19.5556 34.435V34.4308C16.6924 34.435 13.8888 33.6149 11.4785 32.0685C11.8948 32.1186 12.3132 32.1437 12.7327 32.1447C15.1054 32.1468 17.4103 31.3507 19.277 29.8847C17.0222 29.8419 15.0449 28.3717 14.3542 26.2254C15.144 26.3778 15.9579 26.3465 16.7331 26.1347C14.2749 25.638 12.5063 23.4781 12.5063 20.9698C12.5063 20.9468 12.5063 20.9249 12.5063 20.903C13.2388 21.311 14.0589 21.5374 14.8978 21.5624C12.5824 20.015 11.8688 16.9349 13.2669 14.5267C15.9422 17.8187 19.8895 19.8199 24.1268 20.0317C23.7021 18.2016 24.2822 16.2838 25.6512 14.9973C27.7735 13.0023 31.1114 13.1045 33.1064 15.2258C34.2865 14.9931 35.4175 14.5601 36.4526 13.9465C36.0592 15.1663 35.236 16.2024 34.1362 16.8608C35.1807 16.7377 36.2011 16.458 37.1621 16.0313C36.4547 17.0914 35.5636 18.0148 34.5327 18.7609Z" fill="#3D3D3D"/>
</svg>
