<svg id="Layer_1" data-name="Layer 1" xmlns="http://www.w3.org/2000/svg" viewBox="0 0 806.8 1017.2"><defs><style>.cls-1{fill:#fff;}</style></defs><title>RiceDay_Logo_HighRes</title><path class="cls-1" d="M221.6,669.9c-6.8,0-14.6,1.3-22.4,1.3s-11.6-1.9-11.6-6.1,3.2-6.2,8.7-7.5c31.5-7.1,47.7-17.1,47.7-55.1,0-44.3-32.8-61.8-114.1-61.8C56,540.7,28.8,553,21.7,582.8c-5.2,24.6.3,44.4.3,63.2s-5.2,44-.3,70c6.5,27.8,25.6,38.2,59.3,38.2,28.8,0,46.3-14.6,46.3-32.7,0-14.6-12-20.4-12-30.5,0-5.2,2-9.1,9.7-9.1,12,0,19.5,9.8,19.2,27.6,0,29.8,19.1,44.4,54.7,44.4s50.9-14.3,50.9-47C249.8,687.1,240.4,669.9,221.6,669.9Zm-97.5-23.6c-17.2,0-22.1-4.9-22.1-14.9,0-13.3,11.4-15.6,24.3-15.6,25.3,0,34.1,4.2,34.1,14S147.4,646.3,124.1,646.3Z"/><path class="cls-1" d="M367.4,573.7c-5.8-22.7-23.6-33.4-53.1-33.4S267,551,260.8,573.7c-5.2,25.9,6.5,41.2,6.5,72.9,0,34-11.7,49.6-6.2,75.8,6.2,22.4,23.7,31.8,53.2,31.8s47-9.4,53.1-31.8c5.5-26.2-6.5-41.8-6.5-75.8C360.9,614.9,372.9,599.6,367.4,573.7Z"/><path class="cls-1" d="M555.3,660.9c-14.2,0-28.8,3.2-50.2,3.2-10.7,0-21-4.9-21-16.2s9.4-17.5,19.1-17.5c18.1,0,31.1,6.8,51.2,6.8s25.9-17.5,25.9-40.2c0-41.1-24-56-91.1-56.3-85.2,0-107.2,35-107.2,104.6,0,74.2,21.4,109.5,108.9,109.2,60.2.3,89.4-14.2,89.4-58.6C580.3,675.5,572.5,660.9,555.3,660.9Z"/><path class="cls-1" d="M764,683.9c-27.2,0-35.6,5.2-57,5.2-10.7,0-20.1-3.3-20.1-13.6,0-6.5,3.6-11.4,13.6-11.4,20.8,0,37.6,10.1,54.1,10.1,14.3,0,20.8-11.1,20.8-25.6,0-18.5-6.2-26.3-21.1-26.3-20.4,0-32.4,8.1-53.5,8.1-9.7,0-13.6-4.5-13.6-10.7,0-10.3,8.8-13.3,20.1-13.3,21.4,0,28.5,4.9,53.2,4.9,17.1,0,23.6-13,23.6-31.8,0-30.1-10.7-38.8-91.7-38.8-72.9,0-91,11.6-97.2,40.8-4.8,25.9,2,44.7,2,64.8,0,18.5-6.8,43.1-2.3,67.4,5.8,28.2,24.3,40.5,97.8,40.5,78.8,0,94.7-10.4,94.7-46C787.4,693.9,779.9,683.9,764,683.9Z"/><path class="cls-1" d="M147.5,787.1c-63.5,0-80.7,10.4-87.5,34.7-5.2,22.7,1.6,42.4,1.6,70.9s-6.8,53.2-1.3,74.6c7.1,23.6,24.3,33.7,87.8,33.7,90.7,0,124.4-35.3,123.5-109.2C272.5,822.1,239.8,787.1,147.5,787.1Zm8.1,129.3c-13.3,0-21.1-4.9-21.1-23.3,0-14.9,8.8-17.9,22.7-17.9,27.5,0,38.5,5.2,38.5,18.2C195.7,909.3,184.1,916.4,155.6,916.4Z"/><path class="cls-1" d="M507.8,896.3c3.9-72.6-14.9-109.5-110.5-109.5s-115,37.3-110.8,109.5c5.2,32.1-7.8,44.1-4.6,69.4,3.6,22.6,19.2,35,58.4,35,35.6,0,48.6-14.3,48.6-32.1,0-16.2-12-16.6-12-25.3,0-6.2,3.2-11,20.4-11s19.8,4.8,19.8,11c0,8.7-12.3,9.1-12.3,25.3,0,17.8,13.6,32.1,49.2,32.1,39.2,0,54.8-12.4,58.3-35C515.6,940.4,502.6,928.4,507.8,896.3Zm-110.5-6.1c-22.7,0-29.2-2.6-29.2-12.7s9.8-14.9,29.2-14.9,28.8,3.3,28.8,14.9S419.7,890.2,397.3,890.2Z"/><path class="cls-1" d="M747.3,819.2c-5.9-20.7-19.8-32.4-53.2-32.4-49.2,0-52.8,29.8-42.1,49.9,8.7,13.9,11.6,30.1-18.5,30.1-19.7,0-19.7-15.2-11.6-27.5,14.9-21.1,11.9-51.9-42.8-51.9-32.7,0-50.2,9.8-54.8,33.1-1.6,14.9,6.5,26.9,6.5,42.1,0,11.4,1.3,21.7,6.5,30.1,7.1,12.7,18.5,19.8,41.5,19.8s35.3-5.5,48.6-5.5c5.8,0,11.3,2.6,11.3,10.4,0,11.3-8.1,13.9-17.5,13.9-19.1,0-38.2-6.5-62.5-6.5-22.1,0-33.4,12-33.4,31.5,0,33.7,24,44.4,111.5,44.4,67,0,91.3-14.6,102-37.3,7.8-22.7,3.9-42.1,3.9-75.8C742.7,860,752.4,838.3,747.3,819.2Z"/><path class="cls-1" d="M355.4,318.5a26.4,26.4,0,1,1,26.3-26.4A26.4,26.4,0,0,1,355.4,318.5Z"/><path class="cls-1" d="M434.1,345.7a9.1,9.1,0,0,1,0,12.8,44.3,44.3,0,0,1-62.9,0,8.9,8.9,0,0,1,0-12.8,9.1,9.1,0,0,1,12.8,0,26.4,26.4,0,0,0,37.3,0A9.1,9.1,0,0,1,434.1,345.7Z"/><path class="cls-1" d="M476.3,292.1a26.4,26.4,0,1,1-26.4-26.4A26.4,26.4,0,0,1,476.3,292.1Z"/><path class="cls-1" d="M519.2,16.2c-48,0-77.4,24-94.6,36.7a35.7,35.7,0,0,1-42.4,0C365,40.2,335.6,16.2,287.6,16.2c-91.9,0-118.8,62.8-118.8,107.9,0,78.5,83.3,116.7,83.3,203.4,0,69,7.6,131.4,80.9,154,18.8,5.9,41.9,9,70.4,9s51.6-3.1,70.5-9c73.2-22.6,80.8-85,80.8-154,0-86.7,83.3-124.9,83.3-203.4C638,79,611.1,16.2,519.2,16.2Zm-5,364.7c-5.6,36.1-27.2,75.3-110.9,75.7h-1.4c-111.4-.5-112.8-69.9-112.8-109.1,0-20.5,2.2-38,6-52.9,22.1-88.2,99.4-86.5,107.5-86s113.5-2.9,113.5,138.9C516.1,357.3,516,368.9,514.2,380.9Z"/><path class="cls-1" d="M355.4,318.5a26.4,26.4,0,1,1,26.3-26.4A26.4,26.4,0,0,1,355.4,318.5Z"/><path class="cls-1" d="M434.1,345.7a9.1,9.1,0,0,1,0,12.8,44.3,44.3,0,0,1-62.9,0,8.9,8.9,0,0,1,0-12.8,9.1,9.1,0,0,1,12.8,0,26.4,26.4,0,0,0,37.3,0A9.1,9.1,0,0,1,434.1,345.7Z"/><path class="cls-1" d="M476.3,292.1a26.4,26.4,0,1,1-26.4-26.4A26.4,26.4,0,0,1,476.3,292.1Z"/><path class="cls-1" d="M381.7,292.1a26.4,26.4,0,1,1-26.3-26.4A26.4,26.4,0,0,1,381.7,292.1Z"/><path class="cls-1" d="M476.3,292.1a26.4,26.4,0,1,1-26.4-26.4A26.4,26.4,0,0,1,476.3,292.1Z"/><path class="cls-1" d="M434.1,358.5a44.3,44.3,0,0,1-62.9,0,8.9,8.9,0,0,1,0-12.8,9.1,9.1,0,0,1,12.8,0,26.4,26.4,0,0,0,37.3,0,9.1,9.1,0,0,1,12.8,12.8Z"/></svg>