<svg width="111" height="40" viewBox="0 0 111 40" fill="none" xmlns="http://www.w3.org/2000/svg">
<path d="M60.3596 11.0461C59.8962 11.1561 59.6229 11.3465 59.6229 11.675C59.6229 12.0304 59.9779 12.194 60.6061 12.194C61.2611 12.194 61.9161 12.0854 62.4894 12.0854C64.0727 12.0854 64.8643 13.5336 64.8643 15.2005C64.8643 17.9602 63.5811 19.1631 60.5793 19.1631C57.5775 19.1631 55.9661 17.9334 55.9661 15.419C55.9929 13.9158 55.366 13.0965 54.356 13.0965C53.701 13.0965 53.5376 13.425 53.5376 13.8622C53.5376 14.7097 54.5475 15.2005 54.5475 16.4301C54.5475 17.9602 53.0741 19.1899 50.6443 19.1899C47.8059 19.1899 46.1958 18.3156 45.6493 15.9662C45.2394 13.7804 45.6761 11.7032 45.6761 10.0645C45.6761 8.47949 45.2126 6.81265 45.6493 4.73682C46.2494 2.22249 48.5426 1.18457 54.7659 1.18457C61.6161 1.18457 64.3727 2.65964 64.3727 6.40365C64.3714 9.59786 63.0065 10.4454 60.3596 11.0461ZM54.273 10.09C56.238 10.09 57.3297 9.62603 57.3297 8.69673C57.3297 7.87739 56.593 7.52203 54.4645 7.52203C53.3728 7.52203 52.4177 7.7138 52.4177 8.83351C52.4164 9.67967 52.8263 10.09 54.273 10.09Z" fill="#3D3D3D"/>
<path d="M74.7709 3.96998C75.2343 6.15578 74.2244 7.44044 74.2244 10.1184C74.2244 12.9881 75.2343 14.2995 74.7709 16.5121C74.2525 18.3976 72.779 19.1901 70.2943 19.1901C67.8108 19.1901 66.3361 18.3976 65.8177 16.5121C65.3542 14.2995 66.3361 12.9867 66.3361 10.1184C66.3361 7.44044 65.3529 6.15578 65.7896 3.96998C66.3079 2.05775 67.7814 1.15527 70.2929 1.15527C72.7777 1.15527 74.2793 2.05641 74.7709 3.96998Z" fill="#3D3D3D"/>
<path d="M85.0326 1.18262C90.6826 1.20944 92.7025 2.46727 92.7025 5.93637C92.7025 7.8486 92.1842 9.32502 90.5192 9.32502C88.8274 9.32502 87.7357 8.75108 86.2073 8.75108C85.3889 8.75108 84.5972 9.18824 84.5972 10.2262C84.5972 11.1823 85.4706 11.5926 86.3707 11.5926C88.1724 11.5926 89.4007 11.3191 90.6009 11.3191C92.0475 11.3191 92.7025 12.5487 92.7025 14.2706C92.7025 18.0146 90.2459 19.2429 85.1692 19.2161C77.7993 19.2429 75.999 16.2646 75.999 10.0076C75.999 4.13411 77.8542 1.18262 85.0326 1.18262Z" fill="#3D3D3D"/>
<path d="M93.9319 15.7729C93.5501 13.7239 94.1235 11.6467 94.1235 10.0899C94.1235 8.3962 93.5502 6.81117 93.96 4.62538C94.4784 2.16603 96.0068 1.18311 102.148 1.18311C108.972 1.18311 109.872 1.92064 109.872 4.46178C109.872 6.04682 109.325 7.13971 107.88 7.13971C105.805 7.13971 105.205 6.72939 103.403 6.72939C102.448 6.72939 101.712 6.97477 101.712 7.84909C101.712 8.36805 102.04 8.75022 102.858 8.75022C104.632 8.75022 105.642 8.06769 107.362 8.06769C108.617 8.06769 109.135 8.72342 109.135 10.2803C109.135 11.51 108.589 12.4392 107.388 12.4392C105.997 12.4392 104.577 11.5918 102.83 11.5918C101.984 11.5918 101.684 12.0021 101.684 12.5479C101.684 13.4222 102.475 13.6958 103.375 13.6958C105.177 13.6958 105.887 13.2586 108.179 13.2586C109.516 13.2586 110.144 14.1061 110.144 15.3076C110.144 18.3127 108.807 19.187 102.174 19.187C95.9787 19.1884 94.4235 18.1505 93.9319 15.7729Z" fill="#3D3D3D"/>
<path d="M45.7846 37.1573C45.3211 35.3537 45.8944 33.3315 45.8944 30.8721C45.8944 28.4678 45.3211 26.8009 45.7578 24.8887C46.3311 22.8397 47.7778 21.9653 53.1277 21.9653C60.9062 21.9653 63.6628 24.9168 63.5811 30.7917C63.6628 37.0218 60.8244 40.0001 53.1826 40.0001C47.8313 39.9988 46.3847 39.1513 45.7846 37.1573ZM53.8095 32.8675C56.2112 32.8675 57.1944 32.2667 57.1944 30.9271C57.1944 29.8342 56.2661 29.397 53.9461 29.397C52.7727 29.397 52.036 29.6424 52.036 30.9003C52.0347 32.4572 52.6897 32.8675 53.8095 32.8675Z" fill="#3D3D3D"/>
<path d="M83.4776 31.1743C83.0409 33.879 84.1326 34.8901 83.8593 37.0209C83.5593 38.9332 82.2493 39.9724 78.9461 39.9724C75.9443 39.9724 74.7976 38.7696 74.7976 37.2677C74.7976 35.9012 75.8344 35.8744 75.8344 35.1368C75.8344 34.6179 75.6161 34.2076 74.1694 34.2076C72.7228 34.2076 72.4495 34.6179 72.4495 35.1368C72.4495 35.8744 73.4595 35.9026 73.4595 37.2677C73.4595 38.7709 72.3678 39.9724 69.366 39.9724C66.0628 39.9724 64.7528 38.9345 64.4527 37.0209C64.1795 34.8901 65.2712 33.879 64.8345 31.1743C64.4795 25.0809 66.0628 21.939 74.1694 21.939C82.2225 21.9376 83.8044 25.0527 83.4776 31.1743ZM76.5993 29.5892C76.5993 28.605 75.7808 28.3327 74.1708 28.3327C72.5326 28.3327 71.7141 28.6063 71.7141 29.5892C71.7141 30.4367 72.2606 30.6553 74.1708 30.6553C76.0528 30.654 76.5993 30.4354 76.5993 29.5892Z" fill="#3D3D3D"/>
<path d="M84.951 36.2284C84.951 34.5884 85.9061 33.5786 87.7626 33.5786C89.8094 33.5786 91.4195 34.1257 93.0309 34.1257C93.8225 34.1257 94.5043 33.9072 94.5043 32.9511C94.5043 32.2953 94.0409 32.0768 93.5493 32.0768C92.4308 32.0768 91.4208 32.5407 89.4558 32.5407C87.5175 32.5407 86.5625 31.94 85.9624 30.8739C85.5257 30.1632 85.4158 29.2888 85.4158 28.3327C85.4158 27.0481 84.734 26.037 84.8693 24.7805C85.2511 22.8133 86.7259 21.9939 89.4825 21.9939C94.0958 21.9939 94.3409 24.5901 93.0858 26.3655C92.404 27.4034 92.404 28.6881 94.069 28.6881C96.6073 28.6881 96.3622 27.3216 95.6241 26.1469C94.724 24.4533 95.024 21.939 99.1725 21.939C101.984 21.939 103.157 22.9232 103.649 24.6719C104.086 26.2837 103.267 28.1142 103.267 30.4367C103.267 33.2783 103.595 34.9183 102.939 36.8305C102.039 38.7428 99.9909 39.9724 94.3422 39.9724C86.971 39.9724 84.951 39.07 84.951 36.2284Z" fill="#3D3D3D"/>
<path d="M17.9338 23.4256C18.0208 22.2008 17.0994 21.1373 15.8759 21.0502C14.6524 20.9632 13.5901 21.8855 13.5032 23.1104C13.4162 24.3352 14.3375 25.3987 15.561 25.4858C16.7845 25.5728 17.8469 24.6505 17.9338 23.4256Z" fill="#3D3D3D"/>
<path d="M22.3474 27.7863C22.6447 28.084 22.6447 28.5667 22.3474 28.8658C21.6388 29.5738 20.6971 29.9654 19.6952 29.9654C18.6946 29.9654 17.7529 29.5738 17.0443 28.8658C16.7469 28.5667 16.7469 28.084 17.0443 27.7863C17.3417 27.4873 17.8252 27.4873 18.1226 27.7863C18.5432 28.206 19.1018 28.438 19.6952 28.438C20.2899 28.438 20.8485 28.206 21.2691 27.7863C21.5665 27.4873 22.05 27.4873 22.3474 27.7863Z" fill="#3D3D3D"/>
<path d="M23.6789 25.4877C24.9055 25.4877 25.8998 24.4922 25.8998 23.2643C25.8998 22.0364 24.9055 21.041 23.6789 21.041C22.4523 21.041 21.458 22.0364 21.458 23.2643C21.458 24.4922 22.4523 25.4877 23.6789 25.4877Z" fill="#3D3D3D"/>
<path d="M29.5118 0C25.4732 0 22.9938 2.02488 21.5471 3.09364C20.4822 3.87811 19.0369 3.87945 17.972 3.09364C16.5254 2.02488 14.0459 0 10.006 0C2.26241 0 0 5.29821 0 9.09987C0 15.7189 7.01092 18.9373 7.01092 26.2496C7.01092 32.0667 7.6579 37.3288 13.8263 39.2383C15.4109 39.7304 17.3612 39.9986 19.7589 39.9986C22.1579 39.9986 24.1096 39.7304 25.6942 39.2383C31.8599 37.3288 32.5082 32.0667 32.5082 26.2496C32.5082 18.9373 39.5205 15.7189 39.5205 9.09987C39.5205 5.29821 37.2554 0 29.5118 0ZM29.0925 30.7499C28.6223 33.7953 26.802 37.1035 19.7535 37.1397V37.141H19.6357V37.1397C10.2525 37.0914 10.136 31.2434 10.136 27.9366C10.136 26.2094 10.3195 24.7343 10.6356 23.4765C12.5028 16.0354 19.0141 16.1816 19.6946 16.2191C20.4916 16.1762 29.2546 15.9818 29.2546 27.9366C29.2546 28.7599 29.2479 29.7402 29.0925 30.7499Z" fill="#3D3D3D"/>
<path d="M17.9338 23.4256C18.0208 22.2008 17.0994 21.1373 15.8759 21.0502C14.6524 20.9632 13.5901 21.8855 13.5032 23.1104C13.4162 24.3352 14.3375 25.3987 15.561 25.4858C16.7845 25.5728 17.8469 24.6505 17.9338 23.4256Z" fill="#3D3D3D"/>
<path d="M22.3474 27.7863C22.6447 28.084 22.6447 28.5667 22.3474 28.8658C21.6388 29.5738 20.6971 29.9654 19.6952 29.9654C18.6946 29.9654 17.7529 29.5738 17.0443 28.8658C16.7469 28.5667 16.7469 28.084 17.0443 27.7863C17.3417 27.4873 17.8252 27.4873 18.1226 27.7863C18.5432 28.206 19.1018 28.438 19.6952 28.438C20.2899 28.438 20.8485 28.206 21.2691 27.7863C21.5665 27.4873 22.05 27.4873 22.3474 27.7863Z" fill="#3D3D3D"/>
<path d="M23.6789 25.4877C24.9055 25.4877 25.8998 24.4922 25.8998 23.2643C25.8998 22.0364 24.9055 21.041 23.6789 21.041C22.4523 21.041 21.458 22.0364 21.458 23.2643C21.458 24.4922 22.4523 25.4877 23.6789 25.4877Z" fill="#3D3D3D"/>
<path d="M15.7101 25.4882C16.9367 25.4882 17.931 24.4927 17.931 23.2648C17.931 22.0369 16.9367 21.0415 15.7101 21.0415C14.4836 21.0415 13.4893 22.0369 13.4893 23.2648C13.4893 24.4927 14.4836 25.4882 15.7101 25.4882Z" fill="#3D3D3D"/>
<path d="M23.676 25.4882C24.9025 25.4882 25.8968 24.4927 25.8968 23.2648C25.8968 22.0369 24.9025 21.0415 23.676 21.0415C22.4494 21.0415 21.4551 22.0369 21.4551 23.2648C21.4551 24.4927 22.4494 25.4882 23.676 25.4882Z" fill="#3D3D3D"/>
<path d="M22.3454 28.8653C21.6368 29.5734 20.6952 29.965 19.6932 29.965C18.6926 29.965 17.751 29.5734 17.0424 28.8653C16.745 28.5663 16.745 28.0835 17.0424 27.7858C17.3397 27.4868 17.8233 27.4868 18.1207 27.7858C18.5413 28.2055 19.0998 28.4375 19.6932 28.4375C20.288 28.4375 20.8465 28.2055 21.2671 27.7858C21.5645 27.4868 22.0481 27.4868 22.3454 27.7858C22.6428 28.0835 22.6428 28.5663 22.3454 28.8653Z" fill="#3D3D3D"/>
</svg>
